<?xml version="1.0" encoding="utf-8" ?>
<svg xmlns="http://www.w3.org/2000/svg" xmlns:xlink="http://www.w3.org/1999/xlink" width="1024" height="1024">
	<path fill="#32AEFF" transform="scale(2 2)" d="M173.15 242.298C193.755 236.333 211.942 213.107 217.396 193.22C220.063 183.496 220.059 173.77 220.052 163.782L220.045 94.9497C220.039 87.1421 219.322 76.4433 220.743 68.9984C223.507 54.5265 236.369 42.7756 250.967 41.0973C268.049 39.1933 284.759 48.9672 289.884 65.6832C292.494 74.1977 291.562 85.6353 291.561 94.6126L291.55 160.328C291.551 173.042 291.564 185.019 295.939 197.212C303.908 219.42 318.823 232.64 339.292 242.298C321.091 251.003 309.705 259.188 293.484 269.669C282.307 276.891 271.057 283.537 260.307 291.459C259.253 292.308 258.122 293.063 257.014 293.842C250.19 290.698 241.346 284.486 234.81 280.26C214.652 267.224 194.909 252.556 173.15 242.298Z"/>
	<path fill="#32AEFF" transform="scale(2 2)" d="M357.855 219.946C336.832 215.823 319.423 199.078 318.525 176.91C317.515 151.967 329.415 144.431 347.22 132.821L388.562 105.652C396.272 100.624 403.429 95.3635 412.994 95.099C429.115 91.7272 445.744 105.053 449.824 120.107C452.073 128.406 451.451 137.314 451.452 145.842L451.442 169.391C445.789 172.057 439.06 177.079 433.648 180.64L398.813 203.875C382.576 214.863 377.517 219.435 357.855 219.946Z"/>
	<path fill="#32AEFF" transform="scale(2 2)" d="M60.7607 169.391C60.9686 157.961 59.2693 132.812 61.4879 122.773C64.7957 107.807 77.5703 96.7239 92.7628 95.099C106.761 93.5774 116.696 101.57 127.707 108.756L167.982 135.024C172.675 138.017 177.722 140.954 181.728 144.861C205.645 168.182 191.681 209.092 160.524 218.787C138.768 224.365 124.971 211.945 107.947 200.604L83.3225 184.273C75.8531 179.253 68.4461 174.075 60.7607 169.391Z"/>
	<path fill="#32AEFF" transform="scale(2 2)" d="M60.7607 336.086C63.8635 333.086 69.4621 330.069 73.1733 327.607L128.284 290.577C139.254 283.051 148.944 274.998 162.724 273.853C179.157 272.443 192.144 284.484 204.919 292.819L226.495 307.127C236.303 313.509 246.242 319.73 255.886 326.36L256.391 325.964C263.285 320.678 271.319 316.557 278.572 311.749L310.891 290.27C343.775 268.575 350.302 266.473 385.758 290.234L415.283 310.253C420.164 313.609 449.149 332.036 451.442 335.062L451.45 361.352C451.46 381.386 449.572 402.037 425.389 408.321C404.123 413.846 392.527 401.516 375.978 390.608L315.016 350.27C307.908 345.584 299.581 339.14 292.578 335.062C292.671 340.994 292.586 346.941 292.578 352.875L292.602 417.618C292.642 421.071 292.832 424.553 292.571 428C289.199 472.579 227.796 475.626 220.008 432.5C218.887 426.294 219.448 419.685 219.458 413.394L219.463 352.251C219.458 347.323 219.026 342.237 219.465 337.339C212.272 340.705 204.861 346.614 198.132 351.017L127.951 397.244C109.426 409.409 91.1096 418.61 71.4826 398.953C59.7976 387.25 60.7473 374.482 60.7455 359.329L60.7607 336.086Z"/>
</svg>
